<?xml version="1.0" encoding="UTF-8" standalone="no" ?>
<!DOCTYPE svg PUBLIC "-//W3C//DTD SVG 1.1//EN" "http://www.w3.org/Graphics/SVG/1.1/DTD/svg11.dtd">
<svg xmlns="http://www.w3.org/2000/svg" xmlns:xlink="http://www.w3.org/1999/xlink" version="1.1" width="50" height="50" viewBox="0 0 50 50" xml:space="preserve">
<desc>Created with Fabric.js 4.6.0</desc>
<defs>
</defs>
<g transform="matrix(1 0 0 1 25 25)" id="oJxHafuw6NZIB98SqYoMD"  >
<path style="stroke: rgb(210,176,25); stroke-width: 0; stroke-dasharray: none; stroke-linecap: butt; stroke-dashoffset: 0; stroke-linejoin: miter; stroke-miterlimit: 4; fill: rgb(194,222,209); fill-rule: nonzero; opacity: 1;" vector-effect="non-scaling-stroke"  transform=" translate(-25, -25)" d="M 25 0 C 38.8 0 50 11.2 50 25 C 50 38.8 38.8 50 25 50 C 11.2 50 0 38.8 0 25 C 0 11.2 11.2 0 25 0 z" stroke-linecap="round" />
</g>
<g transform="matrix(0.38 0 0 0.38 25 25)" id="S6kG3geQcQxhoywaSQj_6"  >
<g style="" vector-effect="non-scaling-stroke"   >
		<g transform="matrix(1 0 0 1 0 0)" id="NWMtWa9VTFDvEej2JjAD5"  >
<path style="stroke: none; stroke-width: 1; stroke-dasharray: none; stroke-linecap: butt; stroke-dashoffset: 0; stroke-linejoin: miter; stroke-miterlimit: 4; fill: rgb(179,181,179); fill-rule: nonzero; opacity: 1;" vector-effect="non-scaling-stroke"  transform=" translate(-40, -40)" d="M 80 33.5 C 80 37.4 76.8 40.6 72.9 40.6 C 70.7 40.6 68.80000000000001 39.6 67.5 38.1 L 58.3 43.7 C 58.599999999999994 44.5 58.8 45.400000000000006 58.8 46.400000000000006 C 58.8 50.300000000000004 55.599999999999994 53.50000000000001 51.699999999999996 53.50000000000001 C 47.8 53.50000000000001 44.599999999999994 50.300000000000004 44.599999999999994 46.400000000000006 C 44.599999999999994 45.60000000000001 44.8 44.800000000000004 44.99999999999999 44.00000000000001 L 33.9 38 C 32.6 39.7 30.599999999999998 40.7 28.299999999999997 40.7 C 26.099999999999998 40.7 24.199999999999996 39.7 22.9 38.2 L 13.7 43.800000000000004 C 14 44.6 14.2 45.50000000000001 14.2 46.50000000000001 C 14.2 50.400000000000006 11 53.60000000000001 7.1 53.60000000000001 C 3.1999999999999997 53.60000000000001 0 50.400000000000006 0 46.50000000000001 C 0 42.60000000000001 3.2 39.400000000000006 7.1 39.400000000000006 C 9.3 39.400000000000006 11.2 40.400000000000006 12.5 41.900000000000006 L 21.7 36.300000000000004 C 21.4 35.50000000000001 21.2 34.6 21.2 33.6 C 21.2 29.700000000000003 24.4 26.5 28.299999999999997 26.5 C 32.199999999999996 26.5 35.4 29.7 35.4 33.6 C 35.4 34.4 35.199999999999996 35.2 35 36 L 46.1 42 C 47.4 40.3 49.4 39.3 51.7 39.3 C 53.900000000000006 39.3 55.800000000000004 40.3 57.1 41.8 L 66.3 36.199999999999996 C 66 35.4 65.8 34.49999999999999 65.8 33.49999999999999 C 65.8 29.599999999999994 69 26.39999999999999 72.89999999999999 26.39999999999999 C 76.8 26.4 80 29.6 80 33.5 z" stroke-linecap="round" />
</g>
		<g transform="matrix(1 0 0 1 32.9 -6.5)" id="W8KEo6ZeougD_ePA65QwT"  >
<path style="stroke: none; stroke-width: 1; stroke-dasharray: none; stroke-linecap: butt; stroke-dashoffset: 0; stroke-linejoin: miter; stroke-miterlimit: 4; fill: rgb(255,255,255); fill-rule: nonzero; opacity: 1;" vector-effect="non-scaling-stroke"  transform=" translate(-72.9, -33.5)" d="M 72.9 30.2 C 71.10000000000001 30.2 69.60000000000001 31.7 69.60000000000001 33.5 C 69.60000000000001 35.3 71.10000000000001 36.8 72.9 36.8 C 74.7 36.8 76.2 35.3 76.2 33.5 C 76.2 31.7 74.7 30.2 72.9 30.2 z" stroke-linecap="round" />
</g>
		<g transform="matrix(1 0 0 1 11.7 6.4)" id="fAMQrFXviTYLZb0QJuSTB"  >
<path style="stroke: none; stroke-width: 1; stroke-dasharray: none; stroke-linecap: butt; stroke-dashoffset: 0; stroke-linejoin: miter; stroke-miterlimit: 4; fill: rgb(255,255,255); fill-rule: nonzero; opacity: 1;" vector-effect="non-scaling-stroke"  transform=" translate(-51.7, -46.4)" d="M 51.7 43.1 C 49.900000000000006 43.1 48.400000000000006 44.6 48.400000000000006 46.4 C 48.400000000000006 48.199999999999996 49.900000000000006 49.699999999999996 51.7 49.699999999999996 C 53.5 49.699999999999996 55 48.199999999999996 55 46.4 C 55 44.6 53.5 43.1 51.7 43.1 z" stroke-linecap="round" />
</g>
		<g transform="matrix(1 0 0 1 -11.7 -6.5)" id="2Vc4en6xB4ddXKyq68rwK"  >
<path style="stroke: none; stroke-width: 1; stroke-dasharray: none; stroke-linecap: butt; stroke-dashoffset: 0; stroke-linejoin: miter; stroke-miterlimit: 4; fill: rgb(255,255,255); fill-rule: nonzero; opacity: 1;" vector-effect="non-scaling-stroke"  transform=" translate(-28.3, -33.5)" d="M 28.3 30.2 C 26.5 30.2 25 31.7 25 33.5 C 25 35.3 26.5 36.8 28.3 36.8 C 30.1 36.8 31.6 35.3 31.6 33.5 C 31.6 31.7 30.1 30.2 28.3 30.2 z" stroke-linecap="round" />
</g>
		<g transform="matrix(1 0 0 1 -32.8 6.5)" id="idM53X9BX_mINhbkXUn3h"  >
<path style="stroke: none; stroke-width: 1; stroke-dasharray: none; stroke-linecap: butt; stroke-dashoffset: 0; stroke-linejoin: miter; stroke-miterlimit: 4; fill: rgb(255,255,255); fill-rule: nonzero; opacity: 1;" vector-effect="non-scaling-stroke"  transform=" translate(-7.2, -46.5)" d="M 10.5 46.5 C 10.5 48.3 9 49.8 7.2 49.8 C 5.4 49.8 3.9000000000000004 48.3 3.9000000000000004 46.5 C 3.9000000000000004 44.7 5.4 43.2 7.2 43.2 C 9 43.2 10.5 44.6 10.5 46.5 z" stroke-linecap="round" />
</g>
</g>
</g>
</svg>